<?xml version="1.0" encoding="UTF-8"?><svg id="_レイヤー_1" xmlns="http://www.w3.org/2000/svg" viewBox="0 0 192.13444 37.09051"><defs><style>.cls-1{fill:#004097;}.cls-1,.cls-2{stroke-width:0px;}.cls-2{fill:#fbc600;}</style></defs><path class="cls-1" d="M22.54229,13.38183c-.66989-.6701-4.25377-4.25598-4.25377-4.25598-.84645-.84693-.69838-1.65386.63734-2.50781.51952-.33267.9698-.1816.9698.32416v2.90302c0,.42172.36064.53604.63365.26364.27227-.27314,2.47592-2.47379,2.47592-2.47379.30165-.32442.33748-.54177-.07253-.92774-1.8925-1.62159-4.08614-1.19738-5.1328-.15056l-2.00443,2.00353c-1.21764,1.36171-.68618,2.49657.0135,3.19594l4.44872,4.45707c.50689.50602.12274,1.1481-.77729,1.69989-1.27624.65511-1.73415.36745-1.73415-.86143v-2.28546c0-.42096-.35995-.53578-.63296-.2629-.04021.04029-2.45202,2.45205-2.45202,2.45205-.51811.5898.03732,1.3612.84407,1.67612.88046.30892,1.59976.451,2.2413.45448,1.31686.00776,2.23997-.54728,3.08255-1.30792l1.61685-1.6296c1.36164-1.62735.09628-2.76671.09628-2.76671h-.00003Z"/><path class="cls-1" d="M48.37114,5.7746l-2.99344,2.99283v9.89895c0,.42247.36381.54477.63721.27063.05653-.05653,2.99357-2.99357,2.99357-2.99357V6.04451c0-.42249-.36394-.5438-.63734-.26991Z"/><path class="cls-1" d="M48.37114.14992l-2.99344,2.99283v3.48681c0,.42224.36381.54429.63721.27066.05653-.05653,2.99357-2.99357,2.99357-2.99357V.42006c0-.42224-.36394-.54405-.63734-.27014Z"/><path class="cls-1" d="M13.1582.14666L2.39956,10.90881c-2.97782,2.98381-2.98068,6.38084-1.12271,7.8541.56716.41222,1.32644.43825,1.81807-.05353,0,0,5.10732-5.10667,5.13982-5.14868.00064-.00151.00226-.002.00325-.00351.27289-.27314.15814-.63332-.26382-.63332h-2.94016c-1.10878,0-1.1743-2.14064.32911-3.64392l3.71087-3.7172-.00092,13.11012c.01037.4122.37219.53627.64571.26264.02262-.02303,4.0765-4.07666,4.0765-4.07666V.41629c0-.42221-.36356-.54377-.63708-.26963Z"/><path class="cls-1" d="M32.03746,5.7746l-6.1027,6.1037c-1.51629,1.5158-3.19994,4.96811-.93999,6.89462.57835.43323.88945.4072,1.35421-.05704l2.69492-2.6849v2.63539c0,.42247.36368.54477.63734.27063.05653-.05653,2.99331-2.99357,2.99331-2.99357V6.04451c0-.42249-.36356-.5438-.63708-.26991h-.00001ZM28.03562,16.00746c-.50779.50776-1.48504-.42121-1.48504-2.14412.01483-1.20514.52602-2.09259,1.34119-2.92503l1.15212-1.14536v5.20649l-1.00827,1.00802Z"/><path class="cls-1" d="M42.74756,5.7746l-4.44656,4.44598V.42006c0-.42224-.36389-.54405-.63734-.27014l-2.99331,2.99283v15.52363c0,.42247.36363.54477.63708.27063.05653-.05653,2.99357-2.99357,2.99357-2.99357v-4.66005l1.45299-1.45238v8.83537c0,.42247.36371.54477.63721.27063.05666-.05653,2.99334-2.99357,2.99334-2.99357V6.04451c0-.42249-.36358-.5438-.63698-.26991Z"/><path class="cls-1" d="M15.06681,33.64345c0-1.86673.03291-2.10386.14259-2.4.24151-.66185.84507-1.04705,1.76686-1.04705,1.07561,0,1.73385.51327,1.85477,1.57033.01114.05901-.03289.10855-.08798.11856l-.88866.13831c-.06616.00976-.10986-.01977-.12066-.0793-.05479-.52326-.30728-.78992-.74658-.78992-.31812,0-.57036.1481-.6474.37521-.06554.18759-.07679.26664-.07679,2.11385,0,1.84696.01124,1.92626.07679,2.11362.07705.22686.35106.37544.65852.37544.31835,0,.59262-.14858.6693-.37544.05515-.16784.07697-.26666.07697-1.51106,0-.03975-.02182-.05953-.0656-.05953h-.58181c-.0659,0-.10998-.03952-.10998-.09853v-.7309c0-.05953.04408-.09879.10998-.09879h1.668c.0659,0,.1098.03927.1098.09879v.29617c0,1.85697-.03276,2.09385-.14287,2.39024-.24107.66185-.84463,1.04705-1.7558,1.04705-.9218,0-1.52536-.3852-1.76686-1.04705-.10968-.2964-.14259-.53327-.14259-2.4Z"/><path class="cls-1" d="M22.79386,37.00147c-.06591,0-.09892-.01952-.12056-.06905l-.91109-2.67665h-.55973c-.04359,0-.06572.01952-.06572.0593v2.58785c0,.05904-.0439.09856-.11001.09856h-.95466c-.06567,0-.1097-.03952-.1097-.09856v-6.51918c0-.05927.04403-.09853.1097-.09853h1.50366c1.32793,0,2.12899.52351,2.12899,1.99503,0,.87923-.32931,1.43225-.88883,1.71866l1.05353,2.90402c.02177.04954,0,.09856-.05502.09856h-1.02056ZM22.53061,32.28023c0-.79015-.28554-1.03678-.94406-1.03678h-.38407c-.04359,0-.06572.01952-.06572.05904v1.95576c0,.03927.02213.05927.06572.05927h.38407c.65852,0,.94406-.2371.94406-1.03729Z"/><path class="cls-1" d="M24.9031,36.04346c-.11006-.2964-.14269-.53327-.14269-2.4s.03263-2.10386.14269-2.4c.24125-.66185.84494-1.04705,1.76679-1.04705.91074,0,1.51442.3852,1.75593,1.04705.10968.29614.14282.53327.14282,2.4s-.03314,2.1036-.14282,2.4c-.24151.66185-.84519,1.04705-1.75593,1.04705-.92185,0-1.52554-.3852-1.76679-1.04705ZM27.29547,35.75707c.06578-.18736.07679-.26666.07679-2.11362,0-1.84721-.01101-1.92626-.07679-2.11385-.07679-.22711-.3183-.37521-.62558-.37521-.31827,0-.55978.1481-.6367.37521-.06578.18759-.07654.26664-.07654,2.11385,0,1.84696.01076,1.92626.07654,2.11362.07691.22686.31842.37544.6367.37544.30728,0,.54879-.14858.62558-.37544Z"/><path class="cls-1" d="M29.65795,35.29306v-4.90932c0-.05927.04416-.09853.10983-.09853h.95469c.06595,0,.10986.03927.10986.09853v5.04741c0,.42472.25245.70137.69149.70137.43899,0,.68024-.27665.68024-.70137v-5.04741c0-.05927.04403-.09853.10968-.09853h.95487c.06603,0,.10968.03927.10968.09853v4.90932c0,1.19489-.70211,1.79745-1.85446,1.79745-1.15247,0-1.86586-.60256-1.86586-1.79745h-.00002Z"/><path class="cls-1" d="M34.67833,37.00147c-.06595,0-.10993-.03952-.10993-.09856v-6.51918c0-.05927.04398-.09853.10993-.09853h1.50335c1.328,0,2.1181.53353,2.1181,2.06434,0,1.49152-.7901,2.06406-2.1181,2.06406h-.37301c-.04413,0-.06603.02003-.06603.05955v2.42977c0,.05904-.04403.09856-.10968.09856h-.95464,0ZM37.12531,32.34954c0-.84947-.27422-1.10609-.94362-1.10609h-.37301c-.04413,0-.06603.01952-.06603.05904v2.09359c0,.04001.0219.05978.06603.05978h.37301c.66941,0,.94362-.25688.94362-1.10632Z"/><path class="cls-2" d="M53.36575,33.64397c-6.79455-6.89188-16.23939-11.16412-26.68198-11.16412S6.79675,26.75209.00181,33.64345c7.67701-4.99462,16.84056-7.89639,26.68183-7.89639s19.00521,2.90203,26.68211,7.89691Z"/><path class="cls-1" d="M72.87417,14.93536c.03089-.08331.07721-.13899.17008-.13899h1.29814c.09264,0,.1544.05567.17005.13899l2.22548,9.17981c.01543.08329-.03109.13896-.12375.13896h-1.31357c-.1083,0-.15462-.05567-.17008-.13896l-.41734-1.90557h-2.08629l-.41734,1.90557c-.01543.08329-.06175.13896-.16985.13896h-1.31379c-.09264,0-.13896-.05567-.12353-.13896l2.2718-9.17981ZM74.45046,20.95779l-.74181-3.5188h-.04632l-.77272,3.5188h1.56085Z"/><path class="cls-1" d="M80.18409,24.3794c-1.70004,0-2.58104-.82078-2.62736-2.47579,0-.08351.03087-.13896.12351-.15288l1.29836-.19486c.1081-.01392.16985.04176.16985.12527.04654,1.00128.37102,1.39078,1.08196,1.39078.6644,0,.9891-.31991.9891-1.34902,0-1.01542-.2164-1.34924-1.03542-1.64131l-.63373-.2225c-1.45276-.51455-1.88555-1.19614-1.88555-2.67043,0-1.6274.81924-2.51755,2.55017-2.51755s2.48817.83448,2.58082,2.30899c0,.08329-.04632.12505-.13896.15288l-1.23636.16682c-.09287.01392-.17008-.02784-.17008-.11115-.03089-.77878-.30904-1.21006-.9891-1.21006-.64919,0-.95821.36169-.95821,1.14046,0,.87623.18551,1.14046,1.01996,1.43253l.63373.2227c1.37535.48673,1.91621,1.15438,1.91621,2.76766,0,1.86379-.69527,2.83745-2.68891,2.83745Z"/><path class="cls-1" d="M86.01037,14.93536c.03089-.08331.07721-.13899.17008-.13899h1.29814c.09264,0,.15442.05567.17008.13899l2.22545,9.17981c.01546.08329-.03109.13896-.12373.13896h-1.31359c-.1083,0-.15462-.05567-.17005-.13896l-.41736-1.90557h-2.08627l-.41736,1.90557c-.01543.08329-.06175.13896-.16985.13896h-1.31379c-.09264,0-.13896-.05567-.12353-.13896l2.2718-9.17981ZM87.58665,20.95779l-.74181-3.5188h-.04632l-.7727,3.5188h1.56083Z"/><path class="cls-1" d="M91.11004,14.93536c0-.08331.062-.13899.15464-.13899h1.34446c.09287,0,.15462.05567.15462.13899v3.72758c0,.05567.03089.08351.09264.08351h1.77747c.06177,0,.09265-.02784.09265-.08351v-3.72758c0-.08331.06176-.13899.15463-.13899h1.34446c.09265,0,.15463.05567.15463.13899v9.17981c0,.08329-.06198.13896-.15463.13896h-1.34446c-.09287,0-.15463-.05567-.15463-.13896v-3.93616c0-.05567-.03088-.08351-.09265-.08351h-1.77747c-.06175,0-.09264.02784-.09264.08351v3.93616c0,.08329-.06175.13896-.15462.13896h-1.34446c-.09264,0-.15464-.05567-.15464-.13896v-9.17981Z"/><path class="cls-1" d="M98.48174,14.93536c0-.08331.06198-.13899.15462-.13899h1.34446c.09287,0,.15464.05567.15464.13899v9.17981c0,.08329-.06178.13896-.15464.13896h-1.34446c-.09264,0-.15462-.05567-.15462-.13896v-9.17981Z"/><path class="cls-1" d="M105.51351,19.52525c0-2.62867.04632-2.9625.20074-3.37984.34013-.93191,1.19004-1.47431,2.48817-1.47431,1.51475,0,2.44187.72335,2.61193,2.21156.01546.08351-.04632.15288-.12373.1668l-1.25181.19466c-.09264.01392-.15442-.02764-.16985-.11115-.07743-.73702-.43279-1.11263-1.0511-1.11263-.448,0-.80359.20858-.91166.52849-.09287.26423-.1083.37558-.1083,2.97642s.01543,2.71219.1083,2.97642c.10808.31993.49455.52849.92734.52849.448,0,.83445-.20856.94255-.52849.07741-.2364.1083-.37558.1083-2.12802,0-.05567-.03089-.08351-.09287-.08351h-.81902c-.09264,0-.15464-.05567-.15464-.13896v-1.02934c0-.08351.062-.13896.15464-.13896h2.34921c.09264,0,.15442.05545.15442.13896v.41734c0,2.61475-.04632,2.94858-.20096,3.36594-.33991.93188-1.18981,1.47429-2.47274,1.47429-1.29814,0-2.14804-.54241-2.48817-1.47429-.15442-.41736-.20074-.75119-.20074-3.37986Z"/><path class="cls-1" d="M116.42403,24.25414c-.09264,0-.13896-.02784-.16985-.09743l-1.2827-3.76914h-.78835c-.06178,0-.09264.02784-.09264.08351v3.64409c0,.08329-.06178.13896-.15464.13896h-1.34446c-.09264,0-.15462-.05567-.15462-.13896v-9.17981c0-.08331.06198-.13899.15462-.13899h2.11738c1.86989,0,2.99818.73704,2.99818,2.80964,0,1.23767-.46366,2.01645-1.25181,2.41989l1.48364,4.08927c.03089.06937,0,.13896-.07741.13896h-1.43732ZM116.05321,17.60601c0-1.11285-.40188-1.46059-1.329-1.46059h-.54109c-.06178,0-.09264.02784-.09264.08351v2.75394c0,.05545.03087.08329.09264.08329h.54109c.92712,0,1.329-.33363,1.329-1.46015Z"/><path class="cls-1" d="M119.34477,22.90511c-.1544-.41736-.20074-.75119-.20074-3.37986s.04634-2.9625.20074-3.37984c.34015-.93191,1.19006-1.47431,2.48819-1.47431,1.2829,0,2.13281.54241,2.47274,1.47431.15462.41734.20094.75116.20094,3.37984s-.04632,2.9625-.20094,3.37986c-.33993.93188-1.18984,1.47429-2.47274,1.47429-1.29814,0-2.14804-.54241-2.48819-1.47429ZM122.71396,22.50167c.09264-.26423.1081-.37558.1081-2.97642s-.01546-2.71219-.1081-2.97642c-.10808-.31991-.44823-.52849-.881-.52849-.44803,0-.78815.20858-.89625.52849-.09284.26423-.1083.37558-.1083,2.97642s.01546,2.71219.1083,2.97642c.1081.31993.44823.52849.89625.52849.43277,0,.77292-.20856.881-.52849Z"/><path class="cls-1" d="M126.09839,21.84794v-6.91258c0-.08331.06198-.13899.15462-.13899h1.34446c.09287,0,.15464.05567.15464.13899v7.10722c0,.59808.35536.98758.97364.98758.61808,0,.95823-.3895.95823-.98758v-7.10722c0-.08331.06175-.13899.1544-.13899h1.34468c.09264,0,.15442.05567.15442.13899v6.91258c0,1.68307-.9891,2.53147-2.61173,2.53147-1.62283,0-2.62736-.84839-2.62736-2.53147Z"/><path class="cls-1" d="M133.1147,24.25414c-.09264,0-.15462-.05567-.15462-.13896v-9.17981c0-.08331.06198-.13899.15462-.13899h2.11718c1.87009,0,2.98294.75096,2.98294,2.90685,0,2.10019-1.11285,2.90682-2.98294,2.90682h-.52544c-.06176,0-.09264.02784-.09264.08351v3.42162c0,.08329-.06178.13896-.15462.13896h-1.34448ZM136.5611,17.70322c0-1.19614-.38645-1.5578-1.32922-1.5578h-.52544c-.06176,0-.09264.02784-.09264.08351v2.94858c0,.05567.03089.08351.09264.08351h.52544c.94277,0,1.32922-.36166,1.32922-1.5578Z"/><path class="cls-1" d="M143.15966,14.93536c0-.08331.06198-.13899.15462-.13899h1.34448c.09284,0,.15462.05567.15462.13899v3.72758c0,.05567.03089.08351.09264.08351h1.77747c.06175,0,.09264-.02784.09264-.08351v-3.72758c0-.08331.06175-.13899.15462-.13899h1.34446c.09264,0,.15464.05567.15464.13899v9.17981c0,.08329-.062.13896-.15464.13896h-1.34446c-.09287,0-.15462-.05567-.15462-.13896v-3.93616c0-.05567-.03089-.08351-.09264-.08351h-1.77747c-.06175,0-.09264.02784-.09264.08351v3.93616c0,.08329-.06178.13896-.15462.13896h-1.34448c-.09264,0-.15462-.05567-.15462-.13896v-9.17981Z"/><path class="cls-1" d="M150.23774,22.90511c-.1544-.41736-.20074-.75119-.20074-3.37986s.04634-2.9625.20074-3.37984c.34015-.93191,1.19006-1.47431,2.48819-1.47431,1.2829,0,2.13281.54241,2.47274,1.47431.15462.41734.20094.75116.20094,3.37984s-.04632,2.9625-.20094,3.37986c-.33993.93188-1.18984,1.47429-2.47274,1.47429-1.29813,0-2.14804-.54241-2.48819-1.47429ZM153.60694,22.50167c.09264-.26423.1081-.37558.1081-2.97642s-.01546-2.71219-.1081-2.97642c-.10808-.31991-.44823-.52849-.881-.52849-.44803,0-.78815.20858-.89623.52849-.09287.26423-.10832.37558-.10832,2.97642s.01546,2.71219.10832,2.97642c.10808.31993.4482.52849.89623.52849.43277,0,.77292-.20856.881-.52849Z"/><path class="cls-1" d="M157.00657,14.93536c0-.08331.062-.13899.15464-.13899h1.34446c.09287,0,.15462.05567.15462.13899v7.88624c0,.05567.03089.08351.09264.08351h2.72002c.09287,0,.15462.05545.15462.13896v1.07109c0,.08329-.06175.13896-.15462.13896h-4.31174c-.09264,0-.15464-.05567-.15464-.13896v-9.17981Z"/><path class="cls-1" d="M162.75555,14.93536c0-.08331.06176-.13899.1544-.13899h2.42664c1.37535,0,2.17916.50065,2.54975,1.51607.18571.51455.2627,1.15438.2627,3.21281s-.07699,2.69827-.2627,3.21284c-.37059,1.0154-1.1744,1.51605-2.54975,1.51605h-2.42664c-.09264,0-.1544-.05567-.1544-.13896v-9.17981ZM164.50191,22.90511h.66462c.58719,0,.92732-.20878,1.11263-.68159.12351-.34774.18529-.80662.18529-2.69827s-.06178-2.35052-.18529-2.69827c-.18531-.47279-.52544-.68157-1.11263-.68157h-.66462c-.06178,0-.09264.02784-.09264.08351v6.59267c0,.05567.03087.08351.09264.08351Z"/><path class="cls-1" d="M169.67922,14.93536c0-.08331.06178-.13899.15442-.13899h1.34446c.09309,0,.15484.05567.15484.13899v9.17981c0,.08329-.06175.13896-.15484.13896h-1.34446c-.09264,0-.15442-.05567-.15442-.13896v-9.17981Z"/><path class="cls-1" d="M173.1254,14.93536c0-.08331.0622-.13899.15486-.13899h1.63804c.12353,0,.18531.04176.21617.13899l1.94733,6.53722h.07741v-6.53722c0-.08331.06178-.13899.15442-.13899h1.14394c.09264,0,.15442.05567.15442.13899v9.17981c0,.08329-.06178.13896-.15442.13896h-1.53019c-.12353,0-.18529-.04176-.21617-.13896l-2.03997-6.537h-.09307v6.537c0,.08329-.06178.13896-.15442.13896h-1.14349c-.09267,0-.15486-.05567-.15486-.13896v-9.17981Z"/><path class="cls-1" d="M180.23482,19.52525c0-2.62867.0461-2.9625.20052-3.37984.34013-.93191,1.19004-1.47431,2.4884-1.47431,1.51453,0,2.44185.72335,2.61193,2.21156.01523.08351-.04654.15288-.12395.1668l-1.25181.19466c-.09264.01392-.15442-.02764-.16963-.11115-.07743-.73702-.43279-1.11263-1.05132-1.11263-.448,0-.80336.20858-.91166.52849-.09264.26423-.1083.37558-.1083,2.97642s.01566,2.71219.1083,2.97642c.1083.31993.49455.52849.92734.52849.448,0,.83468-.20856.94255-.52849.07741-.2364.1083-.37558.1083-2.12802,0-.05567-.03089-.08351-.09264-.08351h-.81902c-.09267,0-.15486-.05567-.15486-.13896v-1.02934c0-.08351.0622-.13896.15486-.13896h2.34921c.09264,0,.1544.05545.1544.13896v.41734c0,2.61475-.04652,2.94858-.20094,3.36594-.34013.93188-1.19003,1.47429-2.47274,1.47429-1.29836,0-2.14827-.54241-2.4884-1.47429-.15442-.41736-.20052-.75119-.20052-3.37986Z"/><path class="cls-1" d="M189.4455,24.3794c-1.69982,0-2.58104-.82078-2.62714-2.47579,0-.08351.03087-.13896.12353-.15288l1.29834-.19486c.10788-.01392.16965.04176.16965.12527.04652,1.00128.37102,1.39078,1.08216,1.39078.6642,0,.9891-.31991.9891-1.34902,0-1.01542-.2166-1.34924-1.03564-1.64131l-.63373-.2225c-1.45276-.51455-1.88555-1.19614-1.88555-2.67043,0-1.6274.81947-2.51755,2.55017-2.51755,1.73115,0,2.48839.83448,2.58106,2.30899,0,.08329-.04654.12505-.13919.15288l-1.23616.16682c-.09309.01392-.17008-.02784-.17008-.11115-.03089-.77878-.30926-1.21006-.98909-1.21006-.64939,0-.95821.36169-.95821,1.14046,0,.87623.18529,1.14046,1.01996,1.43253l.63374.2227c1.37534.48673,1.91601,1.15438,1.91601,2.76766,0,1.86379-.69507,2.83745-2.68894,2.83745Z"/></svg>