<?xml version="1.0" encoding="utf-8"?>
<!-- Generator: Adobe Illustrator 28.3.0, SVG Export Plug-In . SVG Version: 6.00 Build 0)  -->
<svg version="1.1" id="_レイヤー_1" xmlns="http://www.w3.org/2000/svg" xmlns:xlink="http://www.w3.org/1999/xlink" x="0px"
	 y="0px" viewBox="0 0 139 96.6" style="enable-background:new 0 0 139 96.6;" xml:space="preserve">
<style type="text/css">
	.st0{fill:#004097;}
	.st1{fill:#FBC600;}
</style>
<path class="st0" d="M58.7,34.9C57,33.1,47.6,23.8,47.6,23.8c-2.2-2.2-1.8-4.3,1.7-6.5c1.4-0.9,2.5-0.5,2.5,0.8v7.6
	c0,1.1,0.9,1.4,1.6,0.7c0.7-0.7,6.4-6.4,6.4-6.4c0.8-0.8,0.9-1.4-0.2-2.4c-4.9-4.2-10.6-3.1-13.4-0.4l-5.2,5.2
	c-3.2,3.5-1.8,6.5,0,8.3l11.6,11.6c1.3,1.3,0.3,3-2,4.4c-3.3,1.7-4.5,1-4.5-2.2v-6c0-1.1-0.9-1.4-1.6-0.7c-0.1,0.1-6.4,6.4-6.4,6.4
	c-1.3,1.5,0.1,3.5,2.2,4.4c2.3,0.8,4.2,1.2,5.8,1.2c3.4,0,5.8-1.4,8-3.4l4.2-4.2C62,37.8,58.7,34.9,58.7,34.9L58.7,34.9L58.7,34.9z"
	/>
<path class="st0" d="M126,15l-7.8,7.8v25.8c0,1.1,0.9,1.4,1.7,0.7c0.1-0.1,7.8-7.8,7.8-7.8V15.7C127.6,14.6,126.7,14.3,126,15z"/>
<path class="st0" d="M126,0.4l-7.8,7.8v9.1c0,1.1,0.9,1.4,1.7,0.7c0.1-0.1,7.8-7.8,7.8-7.8V1.1C127.6,0,126.7-0.3,126,0.4z"/>
<path class="st0" d="M34.3,0.4l-28,28C-1.5,36.2-1.5,45,3.3,48.9c1.5,1.1,3.5,1.1,4.7-0.1c0,0,13.3-13.3,13.4-13.4c0,0,0,0,0,0
	c0.7-0.7,0.4-1.6-0.7-1.6h-7.7c-2.9,0-3.1-5.6,0.9-9.5l9.7-9.7l0,34.1c0,1.1,1,1.4,1.7,0.7c0.1-0.1,10.6-10.6,10.6-10.6V1.1
	C35.9,0,35-0.3,34.3,0.4z"/>
<path class="st0" d="M83.4,15L67.6,30.9c-3.9,3.9-8.3,12.9-2.4,18c1.5,1.1,2.3,1.1,3.5-0.1l7-7v6.9c0,1.1,0.9,1.4,1.7,0.7
	c0.1-0.1,7.8-7.8,7.8-7.8V15.7C85.1,14.6,84.2,14.3,83.4,15z M73,41.7c-1.3,1.3-3.9-1.1-3.9-5.6c0-3.1,1.4-5.4,3.5-7.6l3-3v13.6
	L73,41.7C73,41.7,73,41.7,73,41.7z"/>
<path class="st0" d="M111.3,15L99.8,26.6V1.1c0-1.1-0.9-1.4-1.7-0.7l-7.8,7.8v40.4c0,1.1,0.9,1.4,1.7,0.7c0.1-0.1,7.8-7.8,7.8-7.8
	V29.4l3.8-3.8v23c0,1.1,0.9,1.4,1.7,0.7c0.1-0.1,7.8-7.8,7.8-7.8V15.7C113,14.6,112.1,14.3,111.3,15L111.3,15z"/>
<path class="st0" d="M39.2,87.6c0-4.9,0.1-5.5,0.4-6.3c0.6-1.7,2.2-2.7,4.6-2.7c2.8,0,4.5,1.3,4.8,4.1c0,0.2-0.1,0.3-0.2,0.3
	l-2.3,0.4c-0.2,0-0.3-0.1-0.3-0.2c-0.1-1.4-0.8-2.1-1.9-2.1c-0.8,0-1.5,0.4-1.7,1c-0.2,0.5-0.2,0.7-0.2,5.5c0,4.8,0,5,0.2,5.5
	c0.2,0.6,0.9,1,1.7,1c0.8,0,1.5-0.4,1.7-1c0.1-0.4,0.2-0.7,0.2-3.9c0-0.1-0.1-0.2-0.2-0.2h-1.5c-0.2,0-0.3-0.1-0.3-0.3v-1.9
	c0-0.2,0.1-0.3,0.3-0.3h4.3c0.2,0,0.3,0.1,0.3,0.3v0.8c0,4.8-0.1,5.5-0.4,6.2c-0.6,1.7-2.2,2.7-4.6,2.7c-2.4,0-4-1-4.6-2.7
	C39.3,93.1,39.2,92.5,39.2,87.6L39.2,87.6z"/>
<path class="st0" d="M59.4,96.4c-0.2,0-0.3-0.1-0.3-0.2l-2.4-7h-1.5c-0.1,0-0.2,0.1-0.2,0.2v6.7c0,0.2-0.1,0.3-0.3,0.3h-2.5
	c-0.2,0-0.3-0.1-0.3-0.3v-17c0-0.2,0.1-0.3,0.3-0.3h3.9c3.5,0,5.5,1.4,5.5,5.2c0,2.3-0.9,3.7-2.3,4.5l2.7,7.6c0.1,0.1,0,0.3-0.1,0.3
	C62,96.4,59.4,96.4,59.4,96.4z M58.7,84.1c0-2.1-0.7-2.7-2.5-2.7h-1c-0.1,0-0.2,0.1-0.2,0.2v5.1c0,0.1,0.1,0.2,0.2,0.2h1
	C57.9,86.8,58.7,86.2,58.7,84.1z"/>
<path class="st0" d="M64.9,93.9c-0.3-0.8-0.4-1.4-0.4-6.3c0-4.9,0.1-5.5,0.4-6.3c0.6-1.7,2.2-2.7,4.6-2.7c2.4,0,3.9,1,4.6,2.7
	c0.3,0.8,0.4,1.4,0.4,6.3c0,4.9-0.1,5.5-0.4,6.3c-0.6,1.7-2.2,2.7-4.6,2.7C67.1,96.6,65.5,95.6,64.9,93.9z M71.1,93.1
	c0.2-0.5,0.2-0.7,0.2-5.5c0-4.8,0-5-0.2-5.5c-0.2-0.6-0.8-1-1.6-1c-0.8,0-1.5,0.4-1.7,1c-0.2,0.5-0.2,0.7-0.2,5.5c0,4.8,0,5,0.2,5.5
	c0.2,0.6,0.8,1,1.7,1C70.3,94.1,70.9,93.7,71.1,93.1z"/>
<path class="st0" d="M77.2,91.9V79.1c0-0.2,0.1-0.3,0.3-0.3H80c0.2,0,0.3,0.1,0.3,0.3v13.1c0,1.1,0.7,1.8,1.8,1.8
	c1.1,0,1.8-0.7,1.8-1.8V79.1c0-0.2,0.1-0.3,0.3-0.3h2.5c0.2,0,0.3,0.1,0.3,0.3v12.8c0,3.1-1.8,4.7-4.8,4.7
	C79.1,96.6,77.2,95,77.2,91.9z"/>
<path class="st0" d="M90.3,96.4c-0.2,0-0.3-0.1-0.3-0.3v-17c0-0.2,0.1-0.3,0.3-0.3h3.9c3.5,0,5.5,1.4,5.5,5.4c0,3.9-2.1,5.4-5.5,5.4
	h-1c-0.1,0-0.2,0.1-0.2,0.2v6.3c0,0.2-0.1,0.3-0.3,0.3C92.8,96.4,90.3,96.4,90.3,96.4z M96.7,84.3c0-2.2-0.7-2.9-2.5-2.9h-1
	c-0.1,0-0.2,0.1-0.2,0.2V87c0,0.1,0.1,0.2,0.2,0.2h1C96,87.1,96.7,86.5,96.7,84.3z"/>
<path class="st1" d="M139,87.6c-17.7-18-42.3-29.1-69.5-29.1S17.7,69.7,0,87.6c20-13,43.9-20.6,69.5-20.6
	C95.1,67.1,119,74.6,139,87.6z"/>
</svg>
